<?xml version="1.0" standalone="no"?>
<!DOCTYPE svg PUBLIC "-//W3C//DTD SVG 1.1//EN" "http://www.w3.org/Graphics/SVG/1.1/DTD/svg11.dtd" >
<svg xmlns="http://www.w3.org/2000/svg">
<metadata>Generated by IcoMoon</metadata>
<defs>
<font id="Kugoo-Icons" horiz-adv-x="1024">
<font-face units-per-em="1024" ascent="960" descent="-64" />
<missing-glyph horiz-adv-x="1024" />
<glyph unicode="&#x20;" horiz-adv-x="512" d="" />
<glyph unicode="&#xe900;" glyph-name="arrow" d="M675.868 100.915c-77.597-117.603-250.142-117.603-327.74 0l-315.342 477.917c-86.128 130.529 7.485 304.455 163.871 304.455h630.686c156.386 0 249.999-173.926 163.871-304.455l-315.345-477.917z" />
<glyph unicode="&#xe901;" glyph-name="battery" d="M938.665 746.666v42.668c0 23.52-19.126 42.666-42.667 42.666h-128c-23.541 0-42.667-19.146-42.667-42.666v-42.667h-12.498l-17.664 17.666c-15.878 15.896-37.877 25-60.336 25h-245.668c-22.458 0-44.458-9.104-60.334-25l-17.666-17.666h-12.5v42.667c0 23.52-19.124 42.666-42.666 42.666h-128c-23.542 0-42.666-19.146-42.666-42.666v-42.667c-47.042-0.002-85.334-38.272-85.334-85.334v-512c0-47.064 38.292-85.333 85.334-85.333h853.333c47.042 0 85.333 38.269 85.333 85.333v512c0 47.062-38.292 85.332-85.333 85.332zM234.665 533.334h-85.332c-11.792 0-21.334 9.542-21.334 21.334 0 11.79 9.542 21.332 21.334 21.332h85.334c11.792 0 21.334-9.542 21.334-21.334-0.002-11.792-9.544-21.332-21.336-21.332zM874.665 533.334h-21.334v-21.334c0-11.792-9.546-21.334-21.334-21.334-11.793 0-21.334 9.542-21.334 21.334v21.334h-21.339c-11.787 0-21.334 9.542-21.334 21.334s9.546 21.334 21.334 21.334h21.339v21.334c0 11.792 9.54 21.334 21.334 21.334 11.787 0 21.334-9.542 21.334-21.334v-21.336h21.334c11.793 0 21.334-9.542 21.334-21.334s-9.54-21.332-21.334-21.332z" />
<glyph unicode="&#xe902;" glyph-name="cart" d="M1009.119 601.232c-21.045 21.045-47.351 31.567-73.656 31.567h-168.357l-94.701 215.708c-5.261 15.784-15.784 26.306-31.567 31.567s-26.306 5.261-42.089 0-26.306-15.784-31.567-31.567c-5.261-15.784-5.261-26.306 0-42.089l73.656-173.619h-257.797l78.918 173.619c5.261 15.784 5.261 26.306 0 42.089s-15.784 26.306-31.567 31.567-26.306 5.261-42.089 0c-10.522-5.261-21.045-15.784-26.306-26.306l-94.701-220.969h-173.619c-26.306 0-52.612-10.522-73.656-31.567-15.784-21.045-26.306-52.612-15.784-78.918l99.962-436.677c10.522-42.089 47.351-73.656 89.44-73.656h636.602c42.089 0 78.918 31.567 89.44 73.656l99.962 436.677c0 5.261 0 15.784 0 21.045 10.522 21.045 0 42.089-10.522 57.873zM819.717 122.465h-610.296l-94.701 405.11h105.223c0-21.045 10.522-42.089 31.567-52.612 26.306-10.522 63.134 0 73.656 26.306l10.522 26.306h352.498l15.784-26.306c10.522-26.306 47.351-42.089 73.656-26.306 10.522 5.261 26.306 15.784 26.306 31.567 5.261 5.261 5.261 15.784 5.261 21.045h105.223l-94.701-405.11zM398.823 401.307v-210.447c0-31.567-26.306-52.612-52.612-52.612s-52.612 26.306-52.612 52.612v210.447c0 31.567 26.306 52.612 52.612 52.612s52.612-21.045 52.612-52.612zM567.181 401.307v-210.447c0-31.567-26.306-52.612-52.612-52.612s-52.612 26.306-52.612 52.612v210.447c0 31.567 26.306 52.612 52.612 52.612s52.612-21.045 52.612-52.612zM740.799 401.307v-210.447c0-31.567-26.306-52.612-52.612-52.612-31.567 0-52.612 26.306-52.612 52.612v210.447c0 31.567 26.306 52.612 52.612 52.612s52.612-21.045 52.612-52.612z" />
<glyph unicode="&#xe903;" glyph-name="check" d="M1016.434 796.060v0 0l-585.143-736.474c-10.089-20.178-30.266-20.178-50.443-20.178s-40.355 0-50.443 20.178l-322.838 413.636c-10.089 10.089-10.089 30.266 0 40.355 0 10.089 10.089 20.178 30.266 20.178h80.709c10.089 0 20.178 0 30.266-10.089 10.089 0 20.178-10.089 20.178-20.178l211.862-262.305 464.079 585.143c10.089 20.178 30.266 30.266 50.443 30.266h80.709c20.178 0 30.266-10.089 40.355-20.178s10.089-30.266 0-40.355z" />
<glyph unicode="&#xe904;" glyph-name="chevron" d="M1003.636 599.5l-442.472-389.571c-27.153-23.906-71.175-23.906-98.327 0l-442.473 389.571c-27.152 23.906-27.152 62.665 0 86.571s71.175 23.906 98.328 0l393.309-346.285 393.308 346.285c27.153 23.906 71.176 23.906 98.327 0 27.153-23.906 27.153-62.665 0-86.571z" />
<glyph unicode="&#xe905;" glyph-name="duration" d="M822.049 655.314l61.288 61.285-60.304 60.325-65.564-65.56c-59.888 42.443-129.78 68.601-202.821 75.913v87.428h85.295v85.295h-255.886v-85.295h85.295v-87.428c-73.040-7.311-142.93-33.469-202.822-75.913l-65.56 65.56-60.304-60.325 61.285-61.285c-57.206-60.568-95.418-136.565-109.918-218.607-14.501-82.043-4.654-166.531 28.323-243.041s87.642-141.681 157.243-187.474c69.6-45.787 151.089-70.193 234.402-70.193s164.802 24.406 234.403 70.193c69.601 45.793 124.264 110.964 157.239 187.474 32.981 76.51 42.824 160.998 28.323 243.041s-52.713 158.038-109.917 218.607zM512 21.75c-67.479 0-133.443 20.010-189.551 57.5s-99.838 90.772-125.66 153.117c-25.823 62.345-32.579 130.946-19.415 197.125 13.164 66.183 45.66 126.975 93.374 174.69s108.509 80.209 174.69 93.374c66.183 13.164 134.783 6.408 197.125-19.415 62.345-25.823 115.627-69.553 153.117-125.66s57.5-122.071 57.5-189.551c-0.102-90.459-36.080-177.175-100.040-241.142-63.966-63.961-150.685-99.937-241.142-100.040zM512 618.818v-255.886h-255.886c0-50.608 15.007-100.079 43.125-142.165 28.116-42.079 68.081-74.878 114.838-94.246s98.207-24.434 147.845-14.558c49.637 9.872 95.229 34.243 131.019 70.028 35.784 35.79 60.156 81.383 70.028 131.020 9.878 49.636 4.811 101.087-14.558 147.844s-52.167 86.721-94.246 114.838c-42.082 28.117-91.555 43.125-142.165 43.125z" />
<glyph unicode="&#xe906;" glyph-name="heart" d="M999.228 721.376c-15.891 37.154-38.796 70.823-67.444 99.121-28.672 28.383-62.471 50.938-99.566 66.44-38.467 16.138-79.726 24.398-121.381 24.301-58.435 0-115.45-16.161-164.996-46.688-11.852-7.303-23.113-15.323-33.782-24.062-10.668 8.739-21.929 16.759-33.782 24.062-49.547 30.527-106.56 46.688-164.997 46.688-42.079 0-82.854-8.14-121.377-24.301-37.219-15.562-70.764-37.949-99.567-66.44-28.686-28.267-51.6-61.943-67.445-99.121-16.476-38.667-24.891-79.728-24.891-121.986 0-39.864 8.060-81.404 24.062-123.661 13.394-35.315 32.596-71.947 57.133-108.938 38.878-58.535 92.336-119.592 158.715-181.483 109.998-102.595 218.929-173.459 223.552-176.336l28.092-18.194c12.446-8.021 28.448-8.021 40.893 0l28.092 18.194c4.623 2.992 113.434 73.74 223.55 176.336 66.377 61.892 119.838 122.947 158.715 181.483 24.539 36.991 43.861 73.623 57.137 108.938 16 42.258 24.058 83.797 24.058 123.661 0.122 42.258-8.295 83.319-24.771 121.986zM512.060 85.467c0 0-421.975 273.064-421.975 513.923 0 121.986 99.922 220.867 223.197 220.867 86.647 0 161.797-48.842 198.779-120.19 36.982 71.348 112.134 120.19 198.778 120.19 123.277 0 223.196-98.881 223.196-220.867 0-240.86-421.973-513.923-421.973-513.923z" />
<glyph unicode="&#xe907;" glyph-name="home" d="M1002.772 455.764l-465.694 465.464c-6.665 6.621-15.68 10.338-25.075 10.338s-18.409-3.716-25.074-10.338l-465.69-465.464c-6.83-6.803-12.227-14.907-15.875-23.83s-5.469-18.487-5.359-28.127c0.452-39.758 33.546-71.496 73.303-71.496h48.004v-367.876h781.383v367.876h49.017c19.316 0 37.504 7.567 51.168 21.234 6.732 6.707 12.060 14.684 15.692 23.467 3.624 8.783 5.467 18.198 5.428 27.699 0 19.201-7.564 37.386-21.227 51.053zM575.256 45.759h-126.503v230.416h126.503v-230.416zM821.371 413.634v-367.874h-173.828v257.523c0 24.962-20.218 45.18-45.18 45.18h-180.718c-24.962 0-45.18-20.218-45.18-45.18v-257.523h-173.829v367.874h-108.431l417.912 417.573 417.797-417.573h-108.543z" />
<glyph unicode="&#xe908;" glyph-name="lightning" d="M809.146 945.167c-4.739 9.076-14.131 14.833-24.377 14.833h-401.953c-12.155 0-22.868-8.045-26.346-19.689l-143.585-481.168c-2.485-8.323-0.89-17.283 4.299-24.246 5.189-6.966 13.365-11.021 22.046-11.021h225.375l-90.794-454.949c-2.642-13.232 4.705-26.453 17.345-31.169 3.152-1.178 6.403-1.758 9.609-1.758 9.643 0 18.888 5.086 23.899 13.887l354.080 621.792c4.847 8.512 4.801 19.015-0.119 27.483s-13.978 13.733-23.768 13.733h-159.437l211.9 303.855c5.86 8.403 6.565 19.335 1.826 28.418z" />
<glyph unicode="&#xe909;" glyph-name="minus" d="M0 521.143h1024v-146.286h-1024v146.286z" />
<glyph unicode="&#xe90a;" glyph-name="plus" d="M1024 519.68v-143.36h-440.32v-440.32h-143.36v440.32h-440.32v143.36h440.32v440.32h143.36v-440.32z" />
<glyph unicode="&#xe90b;" glyph-name="scales" d="M993.28 381.44h-30.72l-102.4 250.88c15.36 0 25.6 15.36 25.6 30.72s-15.36 30.72-30.72 30.72h-256c-15.36 35.84-51.2 61.44-87.040 61.44-40.96 0-71.68-25.6-81.92-56.32h-256c-20.48 0-30.72-15.36-30.72-30.72s10.24-30.72 25.6-30.72l-102.4-250.88h-35.84c-15.36-5.12-30.72-15.36-30.72-30.72 0-117.76 97.28-215.040 209.92-215.040s209.92 97.28 209.92 209.92c0 15.36-15.36 30.72-30.72 30.72h-25.6l-107.52 256h168.96c15.36-35.84 46.080-61.44 87.040-61.44s71.68 25.6 81.92 56.32h174.080l-102.4-250.88h-30.72c-15.36 0-30.72-15.36-30.72-30.72 0-117.76 97.28-209.92 209.92-209.92 117.76 0 209.92 97.28 209.92 209.92 0 20.48-15.36 30.72-30.72 30.72zM209.92 202.24c-71.68 0-133.12 51.2-148.48 122.88h296.96c-10.24-71.68-71.68-122.88-148.48-122.88zM296.959 381.44h-168.96l81.92 204.8 87.040-204.8zM511.999 637.44c-15.36 0-30.72 15.36-30.72 30.72s15.36 25.6 30.72 25.6c15.36 0 30.72-15.36 30.72-30.72s-15.36-25.6-30.72-25.6zM814.080 586.24l81.92-204.8h-168.96l87.040 204.8zM814.080 202.24c-71.68 0-133.12 51.2-148.48 122.88h296.96c-15.36-71.68-76.8-122.88-148.48-122.88z" />
<glyph unicode="&#xe90c;" glyph-name="speed" d="M482.009 700.361v189.354c-115.649-6.639-224.102-51.578-310.667-128.728l133.878-133.878c50.382 41.942 111.559 67.291 176.789 73.251zM262.768 584.693l-133.876 133.876c-77.215-86.542-122.211-195.003-128.891-310.679h189.362c6 65.245 31.401 126.425 73.405 176.804zM834.552 407.89h189.363c-6.685 115.677-51.674 224.137-128.893 310.679l-133.877-133.876c42.003-50.377 67.405-111.559 73.407-176.804zM834.575 347.885c-9.928-109-69.76-175.507-93.518-199.259-11.737-11.737-11.737-30.767 0-42.503l91.032-91.032c5.865-5.871 13.557-8.801 21.249-8.801s15.378 2.93 21.249 8.801c89.855 89.843 142.246 207.080 149.414 332.794h-189.425zM186.143 175.741c8.38 13.17 21.065 33.002 36.282 56.465-15.599 30.921-28.79 69.464-32.995 115.679h-189.429c7.17-125.715 59.563-242.951 149.413-332.794 5.869-5.871 13.558-8.807 21.249-8.807s15.382 2.935 21.251 8.807l31.169 31.171c-9.029 4.347-17.359 10.217-24.654 17.511-30.057 30.062-35.112 76.104-12.286 111.968zM542.024 889.715v-189.354c65.23-5.96 126.41-31.307 176.788-73.251l133.883 133.878c-86.566 77.152-195.024 122.089-310.671 128.728zM445.304 444.048c-46.434-46.434-192.141-274.633-208.601-300.502-7.551-11.862-5.846-27.376 4.096-37.321s25.457-11.651 37.322-4.096c25.867 16.459 254.070 162.164 300.506 208.598 36.752 36.755 36.752 96.563 0 133.318-36.757 36.755-96.566 36.757-133.322 0.003z" />
<glyph unicode="&#xe90d;" glyph-name="star" d="M512.001 934.939l142.078-342.794 369.921-29.195-282.112-241.054 86.545-360.836-316.433 193.813-316.433-193.813 86.545 360.836-282.111 241.054 369.921 29.195 142.078 342.794z" />
<glyph unicode="&#xe90e;" glyph-name="telegram" d="M401.808 312.26l-16.939-238.256c24.235 0 34.731 10.41 47.318 22.912l113.624 108.59 235.44-172.42c43.18-24.065 73.603-11.393 85.251 39.724l154.542 724.155 0.043 0.043c13.696 63.831-23.083 88.791-65.154 73.132l-908.395-347.784c-61.996-24.065-61.058-58.625-10.539-74.285l232.24-72.236 539.447 337.544c25.388 16.811 48.472 7.51 29.483-9.302l-436.361-391.817z" />
<glyph unicode="&#xe90f;" glyph-name="trash" d="M967.11 774.363h-167.673v101.801c0 47.906-35.929 83.836-83.836 83.836h-407.204c-47.906 0-83.836-35.929-83.836-83.836v-101.801h-167.673c-23.954 0-41.918-17.965-41.918-41.918v-41.918c5.988-5.988 5.988-5.988 11.977-5.988h77.848l29.941-670.691c0-41.918 35.929-77.848 83.836-77.848h586.854c41.918 0 77.848 35.929 83.836 77.848l29.941 670.691h77.848c5.988 0 11.977 5.988 11.977 11.977v35.929c-5.988 23.954-23.954 41.918-41.918 41.918zM308.396 864.187c5.988 0 11.977 5.988 11.977 11.977v-11.977h389.24v11.977c0-5.988 5.988-11.977 11.977-11.977h-11.977v-89.824h-395.228v89.824h-5.988zM793.448 25.825h-562.901l-29.941 658.714h628.772l-35.929-658.714z" />
<glyph unicode="&#xe910;" glyph-name="viber" d="M546.134 379.733c-8.533-8.533-34.134-8.533-42.667 0l-136.534 136.534c-8.533 8.533-8.533 17.067-8.533 25.6s0 17.067 8.533 17.067l25.6 25.6-68.266 76.8-59.733-59.733c-17.067-17.067-17.067-51.201 0-68.266l247.467-256.001c8.533-8.533 25.6-17.067 34.134-17.067 17.067 0 25.6 8.533 34.134 17.067l59.733 59.733-68.266 68.266-25.6-25.6zM981.334 601.599c0 93.867-34.134 187.733-102.4 256.001s-162.134 102.4-256.001 102.4h-213.333c-93.867 0-187.733-34.134-256.001-102.4s-110.933-162.134-110.933-256.001v-170.666c0-76.8 25.6-145.067 68.266-204.8 34.134-51.201 85.333-93.867 145.067-119.467v-102.4c0-51.201 25.6-68.266 51.201-68.266 17.067 0 34.134 8.533 51.201 25.6l110.933 110.933h153.601c93.867 0 187.733 34.134 256.001 102.4s102.4 162.134 102.4 256.001v170.666zM708.268 311.465l-85.333-76.8c-17.067-17.067-42.667-34.134-76.8-34.134-25.6 0-59.733 8.533-76.8 34.134l-247.467 247.467c-42.667 51.201-42.667 119.467 0 162.134l76.8 76.8c8.533 8.533 17.067 8.533 17.067 8.533 8.533 0 17.067 0 17.067-8.533l110.933-110.933c17.067-8.533 17.067-17.067 17.067-25.6s0-17.067-8.533-17.067l-17.067-25.6 93.867-93.867 25.6 25.6c8.533 8.533 34.134 8.533 42.667 0l110.933-110.933c0-8.533 8.533-17.067 8.533-25.6s-8.533-17.067-8.533-25.6zM486.401 669.866c0 17.067 17.067 34.134 34.134 34.134 102.4 0 187.733-85.333 187.733-187.733 0-17.067-17.067-34.134-34.134-34.134-8.533 0-25.6 17.067-25.6 34.134 0 68.266-59.733 128-128 128-17.067 0-34.134 8.533-34.134 25.6zM810.668 482.133c-17.067 0-34.134 17.067-34.134 34.134 0 68.266-25.6 136.534-76.8 179.2-42.667 51.201-110.933 76.8-179.2 76.8-17.067 0-34.134 8.533-34.134 25.6s17.067 34.134 34.134 34.134c85.333 0 162.134-34.134 221.867-93.867s93.867-145.067 93.867-221.867c0-17.067-17.067-34.134-25.6-34.134z" />
<glyph unicode="&#xe911;" glyph-name="whatsapp" d="M782.973 879.149c-85.106 51.064-178.722 76.595-272.339 76.595-280.849 0-510.635-229.786-510.635-510.635 0-93.616 25.532-195.743 76.595-272.339l-76.595-204.254c0-8.511 0-25.532 8.511-25.532h17.021l212.765 76.595c238.297-153.191 553.188-76.595 706.379 161.702s76.595 544.677-161.702 697.868zM765.952 300.43c-8.511-68.084-68.084-110.638-127.659-110.638-68.084 0-195.743 76.595-246.807 136.17-59.574 51.064-136.17 178.722-136.17 246.807 0 59.574 42.553 119.148 102.127 127.659h42.553c8.511 0 17.021-8.511 17.021-8.511s25.532-51.064 42.553-85.106-17.021-76.595-34.043-102.127c8.511-34.043 34.043-59.574 51.064-85.106 25.532-25.532 51.064-42.553 85.106-51.064 25.532 17.021 68.084 51.064 110.638 34.043 34.043-17.021 85.106-42.553 85.106-42.553 8.511 0 8.511-8.511 8.511-17.021v-42.553z" />
<glyph unicode="&#xe912;" glyph-name="search" d="M1020.923 9.607l-332.41 332.412c51.584 66.688 79.482 148.223 79.482 233.983 0 102.655-40.058 198.911-112.506 271.487-72.451 72.576-168.962 112.511-271.49 112.511s-199.039-40.064-271.487-112.511c-72.576-72.448-112.511-168.831-112.511-271.487 0-102.528 40.064-199.039 112.511-271.49 72.448-72.576 168.831-112.506 271.487-112.506 85.76 0 167.167 27.898 233.855 79.354l332.412-332.282c0.979-0.979 2.131-1.754 3.411-2.278 1.274-0.531 2.637-0.8 4.013-0.8 1.382 0 2.746 0.269 4.019 0.8 1.274 0.525 2.432 1.299 3.405 2.278l55.808 55.68c0.979 0.973 1.754 2.131 2.278 3.405 0.531 1.274 0.8 2.637 0.8 4.019 0 1.376-0.269 2.739-0.8 4.013-0.525 1.274-1.299 2.432-2.278 3.411zM586.75 373.252c-54.272-54.147-126.207-83.971-202.751-83.971s-148.479 29.824-202.751 83.971c-54.144 54.272-83.968 126.207-83.968 202.751s29.824 148.607 83.968 202.751c54.271 54.144 126.207 83.968 202.751 83.968s148.607-29.696 202.751-83.968c54.147-54.271 83.971-126.207 83.971-202.751s-29.824-148.607-83.971-202.751z" />
<glyph unicode="&#xe913;" glyph-name="cart-filled" d="M980.595 588.564h-212.438l-119.168 272.865c-6.625 15.182-24.31 22.12-39.495 15.486-15.186-6.63-22.118-24.316-15.488-39.5l108.682-248.853h-381.375l108.68 248.853c6.63 15.184-0.302 32.868-15.486 39.5-15.182 6.634-32.87-0.3-39.498-15.486l-119.168-272.865h-212.437c-27.79 0-48.414-25.158-42.334-51.64l111.87-487.26c4.442-19.348 22.030-33.096 42.334-33.096h713.455c20.3 0 37.888 13.747 42.332 33.096l111.871 487.26c6.078 26.48-14.546 51.64-42.337 51.64zM261.485 496.556c-4.008 0-8.082 0.808-11.992 2.516-15.184 6.63-22.117 24.313-15.486 39.5l22.536 51.604h65.472l-33.024-75.616c-4.922-11.278-15.942-18.004-27.506-18.004zM362 176.567c0-16.568-13.432-30.003-30-30.003s-30 13.435-30 30.003v219.995c0 16.569 13.432 30.001 30 30.001s30-13.432 30-30.001v-219.995zM542.002 176.567c0-16.568-13.435-30.003-30.003-30.003s-29.999 13.435-29.999 30.003v219.995c0 16.569 13.432 30.001 29.999 30.001s30.003-13.432 30.003-30.001v-219.995zM722 176.567c0-16.568-13.435-30.003-30.003-30.003-16.564 0-29.998 13.435-29.998 30.003v219.995c0 16.569 13.435 30.001 29.998 30.001 16.568 0 30.003-13.432 30.003-30.001v-219.995zM774.506 499.072c-3.907-1.708-7.982-2.516-11.991-2.516-11.561 0-22.585 6.724-27.509 18.002l-33.024 75.616h65.475l22.538-51.604c6.63-15.185-0.302-32.868-15.488-39.498z" />
</font>
</defs>
</svg>
